# Blender v2.78 (sub 0) OBJ File: 'block char.blend'
# www.blender.org
mtllib block char.mtl
o Cube.001_Cube.002
v 1.036631 4.634728 0.473695
v 1.036631 8.001894 0.473695
v 1.036631 4.634728 -0.382493
v 1.036631 8.001894 -0.382493
v 0.272391 8.443720 0.332550
v 0.272391 9.868307 0.332550
v 0.272391 8.443720 -0.332568
v 0.272391 9.868307 -0.332568
v 0.439114 4.634728 0.473695
v 0.439114 4.634728 -0.382493
v 0.972257 4.634728 0.281034
v 0.972257 4.634728 -0.189832
v 0.503488 4.634728 0.281034
v 0.503488 4.634728 -0.189832
v 0.972257 2.800487 0.281034
v 0.972257 2.800487 -0.189832
v 0.503488 2.800487 0.281034
v 0.503488 2.800487 -0.189832
v 1.136195 5.806360 0.210351
v 1.136195 7.657836 0.210351
v 1.136195 5.806360 -0.210351
v 1.136195 7.657836 -0.210351
v 1.556897 5.806360 0.210351
v 1.556897 7.657836 0.210351
v 1.556897 5.806360 -0.210351
v 1.556897 7.657836 -0.210351
v 1.136195 5.426021 -0.210351
v 1.136195 5.426021 0.210351
v 1.556897 5.426021 -0.210351
v 1.556897 5.426021 0.210351
v 1.136195 3.771548 -0.210351
v 1.136195 3.771548 0.210351
v 1.556897 3.771548 -0.210351
v 1.556897 3.771548 0.210351
v 1.136195 3.771548 -0.000000
v 1.304256 3.771548 -0.210351
v 1.556897 3.771548 -0.000000
v 1.304256 3.771548 0.210351
v 1.304256 3.771548 -0.000000
v 1.532877 3.002270 -0.000000
v 1.532877 3.002270 -0.195034
v 1.433272 3.002270 0.195034
v 1.532877 3.002270 0.195034
v 1.433272 3.002270 -0.195034
v 1.433272 3.002270 -0.000000
v 1.155230 3.302476 0.078796
v 1.155230 3.302476 0.155577
v 1.243418 3.302476 0.002015
v 1.155230 3.302476 0.002015
v 1.243418 3.302476 0.155577
v 1.243418 3.302476 0.078796
v 0.972257 2.237263 0.281034
v 0.972257 2.237263 -0.189832
v 0.503488 2.237263 0.281034
v 0.503488 2.237263 -0.189832
v 0.972257 0.504294 0.281034
v 0.972257 0.504294 -0.189832
v 0.503488 0.504294 0.281034
v 0.503488 0.504294 -0.189832
v 0.972257 -0.040722 0.281034
v 0.972257 -0.040722 -0.189832
v 0.503488 -0.040722 0.281034
v 0.503488 -0.040722 -0.189832
v 0.503488 -0.037466 0.921961
v 0.972257 -0.037466 0.921961
v -1.036631 4.634728 0.473695
v -1.036631 8.001894 0.473695
v -1.036631 4.634728 -0.382493
v -1.036631 8.001894 -0.382493
v -0.272391 8.443720 0.332550
v -0.272391 9.868307 0.332550
v -0.272391 8.443720 -0.332568
v -0.272391 9.868307 -0.332568
v 0.000000 8.443720 -0.332568
v 0.000000 9.868307 -0.332568
v 0.000000 8.443720 0.332550
v 0.000000 9.868307 0.332550
v 0.000000 4.634728 -0.382493
v 0.000000 8.001894 -0.382493
v 0.000000 4.634728 0.473695
v 0.000000 8.001894 0.473695
v -0.439114 4.634728 0.473695
v -0.439114 4.634728 -0.382493
v -0.972257 4.634728 0.281034
v -0.972257 4.634728 -0.189832
v -0.503488 4.634728 0.281034
v -0.503488 4.634728 -0.189832
v -0.972257 2.800487 0.281034
v -0.972257 2.800487 -0.189832
v -0.503488 2.800487 0.281034
v -0.503488 2.800487 -0.189832
v -1.136195 5.806360 0.210351
v -1.136195 7.657836 0.210351
v -1.136195 5.806360 -0.210351
v -1.136195 7.657836 -0.210351
v -1.556897 5.806360 0.210351
v -1.556897 7.657836 0.210351
v -1.556897 5.806360 -0.210351
v -1.556897 7.657836 -0.210351
v -1.136195 5.426021 -0.210351
v -1.136195 5.426021 0.210351
v -1.556897 5.426021 -0.210351
v -1.556897 5.426021 0.210351
v -1.136195 3.771548 -0.210351
v -1.136195 3.771548 0.210351
v -1.556897 3.771548 -0.210351
v -1.556897 3.771548 0.210351
v -1.136195 3.771548 -0.000000
v -1.304256 3.771548 -0.210351
v -1.556897 3.771548 -0.000000
v -1.304256 3.771548 0.210351
v -1.304256 3.771548 -0.000000
v -1.532877 3.002270 -0.000000
v -1.532877 3.002270 -0.195034
v -1.433272 3.002270 0.195034
v -1.532877 3.002270 0.195034
v -1.433272 3.002270 -0.195034
v -1.433272 3.002270 -0.000000
v -1.155230 3.302476 0.078796
v -1.155230 3.302476 0.155577
v -1.243418 3.302476 0.002015
v -1.155230 3.302476 0.002015
v -1.243418 3.302476 0.155577
v -1.243418 3.302476 0.078796
v -0.972257 2.237263 0.281034
v -0.972257 2.237263 -0.189832
v -0.503488 2.237263 0.281034
v -0.503488 2.237263 -0.189832
v -0.972257 0.504294 0.281034
v -0.972257 0.504294 -0.189832
v -0.503488 0.504294 0.281034
v -0.503488 0.504294 -0.189832
v -0.972257 -0.040722 0.281034
v -0.972257 -0.040722 -0.189832
v -0.503488 -0.040722 0.281034
v -0.503488 -0.040722 -0.189832
v -0.503488 -0.037466 0.921961
v -0.972257 -0.037466 0.921961
v -0.380880 8.415639 0.434184
v -0.380880 8.981346 0.434184
v -0.380880 8.415639 -0.434184
v -0.380880 8.981346 -0.434184
v 0.380880 8.415639 0.434184
v 0.380880 8.981346 0.434184
v 0.380880 8.415639 -0.434184
v 0.380880 8.981346 -0.434184
v -0.380880 8.415639 -0.000000
v -0.380880 8.981346 -0.000000
v 0.380880 8.415639 -0.000000
v 0.380880 8.981346 -0.000000
v -0.380880 9.948890 -0.000000
v -0.380880 9.948890 -0.434184
v 0.380880 9.948890 -0.434184
v 0.380880 9.948890 -0.000000
v -0.239187 9.167253 0.435062
v -0.239187 9.330607 0.435062
v 0.239187 9.167253 0.435062
v 0.239187 9.330607 0.435062
v -0.239187 9.167253 0.289918
v -0.239187 9.330607 0.289918
v 0.239187 9.167253 0.289918
v 0.239187 9.330607 0.289918
v 0.380880 9.740843 -0.434184
v 0.380880 9.740843 -0.000000
v -0.380880 9.740843 -0.000000
v -0.380880 9.740843 -0.434184
v -0.380880 9.948890 0.344455
v 0.380880 9.948890 0.344455
v -0.380880 9.740843 0.344455
v 0.380880 9.740843 0.344455
v 1.001194 0.544586 0.288462
v 1.001194 0.544586 -0.240538
v 0.474551 0.544586 0.288462
v 0.474551 0.544586 -0.240538
v 1.001194 -0.067718 0.288462
v 1.001194 -0.067718 -0.240538
v 0.474551 -0.067718 0.288462
v 0.474551 -0.067718 -0.240538
v 0.474551 -0.064059 1.008518
v 1.001194 -0.064059 1.008518
v 1.054763 1.477888 0.342271
v 1.054763 1.477888 -0.294347
v 0.420982 1.477888 0.342271
v 0.420982 1.477888 -0.294347
v -0.467799 0.544586 0.288462
v -0.467799 0.544586 -0.240538
v -0.994442 0.544586 0.288462
v -0.994442 0.544586 -0.240538
v -0.467799 -0.067718 0.288462
v -0.467799 -0.067718 -0.240538
v -0.994442 -0.067718 0.288462
v -0.994442 -0.067718 -0.240538
v -0.994442 -0.064059 1.008518
v -0.467799 -0.064059 1.008518
v -0.414230 1.477888 0.342271
v -0.414230 1.477888 -0.294347
v -1.048012 1.477888 0.342271
v -1.048012 1.477888 -0.294347
v 1.100443 6.701112 0.246104
v 1.100443 7.753507 0.246104
v 1.100443 6.701112 -0.246104
v 1.100443 7.753507 -0.246104
v 1.592650 6.701112 0.246104
v 1.592650 7.753507 0.246104
v 1.592650 6.701112 -0.246104
v 1.592650 7.753507 -0.246104
v -1.593836 6.701112 0.246104
v -1.593836 7.753507 0.246104
v -1.593836 6.701112 -0.246104
v -1.593836 7.753507 -0.246104
v -1.101629 6.701112 0.246104
v -1.101629 7.753507 0.246104
v -1.101629 6.701112 -0.246104
v -1.101629 7.753507 -0.246104
vt 0.2166 0.6338
vt 0.2761 0.6338
vt 0.2761 0.6527
vt 0.2166 0.6527
vt 0.2166 0.6418
vt 0.2170 0.6586
vt 0.2765 0.6586
vt 0.2765 0.6703
vt 0.2170 0.6703
vt 0.2102 0.6989
vt 0.2220 0.6989
vt 0.2193 0.7000
vt 0.2128 0.7000
vt 0.0247 0.9763
vt 0.0247 0.9511
vt 0.0297 0.9511
vt 0.0297 0.9763
vt 0.0433 0.9503
vt 0.0433 0.9755
vt 0.0341 0.9755
vt 0.0341 0.9503
vt 0.0053 0.9857
vt 0.0053 0.9809
vt 0.0145 0.9809
vt 0.0145 0.9857
vt 0.0195 0.9908
vt 0.0195 0.9860
vt 0.0286 0.9860
vt 0.0286 0.9908
vt 0.0055 0.9763
vt 0.0055 0.9511
vt 0.0105 0.9511
vt 0.0105 0.9763
vt 0.4036 0.7119
vt 0.4036 0.7302
vt 0.3918 0.7302
vt 0.3918 0.7119
vt 0.2166 0.5729
vt 0.2761 0.5729
vt 0.2761 0.5917
vt 0.2166 0.5917
vt 0.2166 0.5838
vt 0.1954 0.6760
vt 0.2072 0.6760
vt 0.2072 0.6837
vt 0.1954 0.6837
vt 0.0578 0.7483
vt 0.0513 0.7483
vt 0.0513 0.7159
vt 0.0578 0.7159
vt 0.2102 0.7095
vt 0.2128 0.7083
vt 0.2220 0.7095
vt 0.2193 0.7083
vt 0.1059 0.6650
vt 0.1144 0.6650
vt 0.1144 0.6974
vt 0.1059 0.6974
vt 0.1470 0.7462
vt 0.1385 0.7462
vt 0.1385 0.7138
vt 0.1470 0.7138
vt 0.0316 0.6658
vt 0.0381 0.6658
vt 0.0381 0.6982
vt 0.0316 0.6982
vt 0.1924 0.8129
vt 0.2251 0.8129
vt 0.2251 0.8187
vt 0.1924 0.8187
vt 0.1974 0.8009
vt 0.2301 0.8009
vt 0.2301 0.8086
vt 0.1974 0.8086
vt 0.1974 0.7787
vt 0.2301 0.7787
vt 0.2301 0.7845
vt 0.1974 0.7845
vt 0.0695 0.8072
vt 0.0368 0.8072
vt 0.0368 0.7995
vt 0.0695 0.7995
vt 0.0762 0.7995
vt 0.0762 0.8072
vt 0.0217 0.7906
vt 0.0292 0.7906
vt 0.0292 0.7964
vt 0.0217 0.7964
vt 0.1054 0.7995
vt 0.1054 0.8026
vt 0.1054 0.8072
vt 0.1907 0.8086
vt 0.1907 0.8009
vt 0.1857 0.8187
vt 0.1857 0.8129
vt 0.1907 0.7845
vt 0.1907 0.7787
vt 0.1614 0.7816
vt 0.1614 0.7845
vt 0.1478 0.7843
vt 0.1478 0.7816
vt 0.1614 0.8086
vt 0.1614 0.8040
vt 0.1614 0.8009
vt 0.1614 0.7787
vt 0.1565 0.8187
vt 0.1565 0.8158
vt 0.1565 0.8129
vt 0.1531 0.8029
vt 0.1531 0.8013
vt 0.1406 0.8227
vt 0.1406 0.8256
vt 0.1323 0.8248
vt 0.1323 0.8238
vt 0.1398 0.7897
vt 0.1398 0.7926
vt 0.1262 0.7926
vt 0.1262 0.7899
vt 0.0153 0.8182
vt 0.0153 0.8201
vt 0.0127 0.8201
vt 0.0127 0.8182
vt 0.0179 0.8182
vt 0.0179 0.8201
vt 0.1398 0.7955
vt 0.1262 0.7952
vt 0.1478 0.7790
vt 0.1478 0.8081
vt 0.1478 0.8063
vt 0.1190 0.8049
vt 0.1190 0.8067
vt 0.0171 0.8128
vt 0.0171 0.8144
vt 0.0161 0.8144
vt 0.0161 0.8128
vt 0.0182 0.8128
vt 0.0182 0.8144
vt 0.1482 0.8158
vt 0.1482 0.8147
vt 0.1406 0.8198
vt 0.1323 0.8227
vt 0.1482 0.8137
vt 0.1137 0.7999
vt 0.1137 0.8015
vt 0.1385 0.7039
vt 0.1470 0.7039
vt 0.1385 0.6733
vt 0.1470 0.6733
vt 0.0381 0.7081
vt 0.0316 0.7081
vt 0.0513 0.7060
vt 0.0578 0.7060
vt 0.1144 0.7074
vt 0.1059 0.7074
vt 0.0578 0.6754
vt 0.0513 0.6754
vt 0.0513 0.6658
vt 0.0578 0.6658
vt 0.0381 0.7387
vt 0.0316 0.7387
vt 0.1144 0.7380
vt 0.1059 0.7380
vt 0.1525 0.7268
vt 0.1525 0.7205
vt 0.1610 0.7205
vt 0.1610 0.7268
vt 0.0381 0.7483
vt 0.0469 0.7483
vt 0.1385 0.6637
vt 0.1470 0.6637
vt 0.0316 0.7483
vt 0.1144 0.7475
vt 0.1059 0.7475
vt 0.0666 0.6658
vt 0.1525 0.7120
vt 0.1610 0.7120
vt 0.2166 0.6258
vt 0.2166 0.6150
vt 0.2761 0.6150
vt 0.2170 0.6865
vt 0.2170 0.6747
vt 0.2765 0.6747
vt 0.2765 0.6865
vt 0.2102 0.7355
vt 0.2128 0.7344
vt 0.2193 0.7344
vt 0.2220 0.7355
vt 0.0198 0.9763
vt 0.0198 0.9511
vt 0.0572 0.9760
vt 0.0481 0.9760
vt 0.0481 0.9508
vt 0.0572 0.9508
vt 0.0145 0.9905
vt 0.0053 0.9905
vt 0.0195 0.9812
vt 0.0286 0.9812
vt 0.0154 0.9763
vt 0.0154 0.9511
vt 0.4036 0.7485
vt 0.3918 0.7485
vt 0.2166 0.6106
vt 0.2166 0.5997
vt 0.2761 0.6106
vt 0.1954 0.6915
vt 0.2072 0.6915
vt 0.0185 0.6658
vt 0.0185 0.6982
vt 0.0120 0.6982
vt 0.0120 0.6658
vt 0.2102 0.7250
vt 0.2128 0.7261
vt 0.2193 0.7261
vt 0.2220 0.7250
vt 0.1015 0.6650
vt 0.1015 0.6974
vt 0.0930 0.6974
vt 0.0930 0.6650
vt 0.1215 0.7471
vt 0.1215 0.7147
vt 0.1300 0.7147
vt 0.1300 0.7471
vt 0.0717 0.7482
vt 0.0717 0.7158
vt 0.0781 0.7158
vt 0.0781 0.7482
vt 0.1809 0.8231
vt 0.1809 0.8288
vt 0.1482 0.8288
vt 0.1482 0.8231
vt 0.1805 0.7889
vt 0.1805 0.7965
vt 0.1478 0.7965
vt 0.1478 0.7889
vt 0.0863 0.7952
vt 0.0863 0.7894
vt 0.1190 0.7894
vt 0.1190 0.7952
vt 0.0695 0.8115
vt 0.0695 0.8192
vt 0.0368 0.8192
vt 0.0368 0.8115
vt 0.0762 0.8115
vt 0.0762 0.8192
vt 0.0284 0.8009
vt 0.0284 0.8066
vt 0.0210 0.8066
vt 0.0210 0.8009
vt 0.1054 0.8115
vt 0.1054 0.8161
vt 0.1054 0.8192
vt 0.1873 0.7889
vt 0.1873 0.7965
vt 0.1876 0.8231
vt 0.1876 0.8288
vt 0.0796 0.7952
vt 0.0796 0.7894
vt 0.0503 0.7923
vt 0.0368 0.7923
vt 0.0368 0.7896
vt 0.0503 0.7894
vt 0.2165 0.7889
vt 0.2165 0.7920
vt 0.2165 0.7965
vt 0.0503 0.7952
vt 0.2168 0.8231
vt 0.2168 0.8260
vt 0.2168 0.8288
vt 0.2248 0.7892
vt 0.2248 0.7908
vt 0.1406 0.8084
vt 0.1323 0.8074
vt 0.1323 0.8063
vt 0.1406 0.8055
vt 0.1393 0.7848
vt 0.1256 0.7846
vt 0.1256 0.7819
vt 0.1393 0.7819
vt 0.0248 0.8201
vt 0.0222 0.8201
vt 0.0222 0.8182
vt 0.0248 0.8182
vt 0.0274 0.8201
vt 0.0274 0.8182
vt 0.1256 0.7792
vt 0.1393 0.7790
vt 0.0368 0.7950
vt 0.2301 0.7943
vt 0.2301 0.7961
vt 0.1190 0.8120
vt 0.1190 0.8138
vt 0.0234 0.8144
vt 0.0224 0.8144
vt 0.0224 0.8128
vt 0.0234 0.8128
vt 0.0245 0.8144
vt 0.0245 0.8128
vt 0.2251 0.8249
vt 0.2251 0.8259
vt 0.1406 0.8113
vt 0.1323 0.8084
vt 0.2251 0.8238
vt 0.1137 0.8172
vt 0.1137 0.8189
vt 0.1215 0.7048
vt 0.1300 0.7048
vt 0.1215 0.6742
vt 0.1300 0.6742
vt 0.0717 0.7059
vt 0.0781 0.7059
vt 0.0185 0.7081
vt 0.0120 0.7081
vt 0.1015 0.7074
vt 0.0930 0.7074
vt 0.0185 0.7387
vt 0.0185 0.7483
vt 0.0120 0.7483
vt 0.0120 0.7387
vt 0.0717 0.6753
vt 0.0781 0.6753
vt 0.1015 0.7380
vt 0.0930 0.7380
vt 0.1610 0.7452
vt 0.1525 0.7452
vt 0.1525 0.7389
vt 0.1610 0.7389
vt 0.0781 0.6656
vt 0.0869 0.6657
vt 0.1215 0.6645
vt 0.1300 0.6645
vt 0.0717 0.6656
vt 0.1015 0.7475
vt 0.0930 0.7475
vt 0.0273 0.7483
vt 0.1525 0.7304
vt 0.1610 0.7304
vt 0.2764 0.9296
vt 0.2764 0.9196
vt 0.2824 0.9196
vt 0.2824 0.9296
vt 0.2500 0.9851
vt 0.2500 0.9752
vt 0.2639 0.9752
vt 0.2639 0.9851
vt 0.2961 0.9296
vt 0.2961 0.9196
vt 0.3020 0.9196
vt 0.3020 0.9296
vt 0.2641 0.9530
vt 0.2538 0.9530
vt 0.2538 0.9396
vt 0.2641 0.9396
vt 0.2885 0.9689
vt 0.2885 0.9554
vt 0.2945 0.9554
vt 0.2945 0.9689
vt 0.2748 0.9568
vt 0.2748 0.9703
vt 0.2689 0.9703
vt 0.2689 0.9568
vt 0.2961 0.9062
vt 0.2901 0.9062
vt 0.2901 0.9025
vt 0.2961 0.9025
vt 0.2825 0.9689
vt 0.2825 0.9554
vt 0.2901 0.9296
vt 0.2901 0.9196
vt 0.2705 0.9296
vt 0.2705 0.9196
vt 0.2932 0.9731
vt 0.2932 0.9866
vt 0.2873 0.9866
vt 0.2873 0.9731
vt 0.2824 0.9062
vt 0.2764 0.9062
vt 0.2764 0.9025
vt 0.2824 0.9025
vt 0.2639 0.9617
vt 0.2500 0.9617
vt 0.2500 0.9581
vt 0.2639 0.9581
vt 0.2825 0.9866
vt 0.2825 0.9731
vt 0.2537 0.9308
vt 0.2537 0.9337
vt 0.2517 0.9337
vt 0.2517 0.9308
vt 0.2421 0.9244
vt 0.2451 0.9244
vt 0.2451 0.9329
vt 0.2421 0.9329
vt 0.2517 0.9105
vt 0.2517 0.9021
vt 0.2537 0.9021
vt 0.2537 0.9105
vt 0.2537 0.9148
vt 0.2537 0.9232
vt 0.2517 0.9232
vt 0.2517 0.9148
vt 0.2451 0.9371
vt 0.2451 0.9455
vt 0.2421 0.9455
vt 0.2421 0.9371
vt 0.2516 0.9279
vt 0.2516 0.9250
vt 0.2536 0.9250
vt 0.2536 0.9279
vt 0.0336 0.9942
vt 0.0336 0.9807
vt 0.0474 0.9807
vt 0.0474 0.9942
vt 0.2459 0.9067
vt 0.2459 0.9202
vt 0.2421 0.9202
vt 0.2421 0.9067
vt 0.3008 0.9025
vt 0.3008 0.9062
vt 0.2717 0.9062
vt 0.2717 0.9025
vt 0.2421 0.9025
vt 0.2421 0.8890
vt 0.2469 0.8890
vt 0.2469 0.9025
vt 0.5144 0.6634
vt 0.5079 0.6634
vt 0.5079 0.6537
vt 0.5144 0.6537
vt 0.6091 0.7148
vt 0.6091 0.7085
vt 0.6176 0.7085
vt 0.6176 0.7148
vt 0.4947 0.7363
vt 0.4947 0.7267
vt 0.5035 0.7363
vt 0.6036 0.6613
vt 0.5951 0.6613
vt 0.5951 0.6516
vt 0.6036 0.6516
vt 0.4883 0.7267
vt 0.4883 0.7363
vt 0.5625 0.7260
vt 0.5710 0.7260
vt 0.5710 0.7355
vt 0.5625 0.7355
vt 0.5232 0.6538
vt 0.6091 0.6999
vt 0.6176 0.6999
vt 0.4883 0.7267
vt 0.4947 0.7267
vt 0.5951 0.6613
vt 0.6036 0.6613
vt 0.5144 0.6634
vt 0.5625 0.7260
vt 0.5079 0.6634
vt 0.5710 0.7260
vt 0.5204 0.5492
vt 0.5139 0.5492
vt 0.5139 0.5396
vt 0.5204 0.5396
vt 0.6151 0.6006
vt 0.6151 0.5943
vt 0.6236 0.5943
vt 0.6236 0.6006
vt 0.5007 0.6222
vt 0.5007 0.6125
vt 0.5095 0.6221
vt 0.6096 0.5471
vt 0.6011 0.5471
vt 0.6011 0.5375
vt 0.6096 0.5375
vt 0.4943 0.6125
vt 0.4943 0.6222
vt 0.5685 0.6118
vt 0.5770 0.6118
vt 0.5770 0.6213
vt 0.5685 0.6213
vt 0.5292 0.5396
vt 0.6151 0.5858
vt 0.6236 0.5858
vt 0.4943 0.6125
vt 0.5007 0.6125
vt 0.6011 0.5471
vt 0.6096 0.5471
vt 0.5204 0.5492
vt 0.5685 0.6118
vt 0.5139 0.5492
vt 0.5770 0.6118
vt 0.4319 0.5984
vt 0.4646 0.5984
vt 0.4646 0.6042
vt 0.4319 0.6042
vt 0.4368 0.5864
vt 0.4695 0.5864
vt 0.4695 0.5941
vt 0.4368 0.5941
vt 0.4368 0.5642
vt 0.4695 0.5642
vt 0.4695 0.5700
vt 0.4368 0.5700
vt 0.3089 0.5927
vt 0.2762 0.5927
vt 0.2762 0.5850
vt 0.3089 0.5850
vt 0.2612 0.5761
vt 0.2686 0.5761
vt 0.2686 0.5819
vt 0.2612 0.5819
vt 0.4319 0.5984
vt 0.4646 0.5984
vt 0.4646 0.6042
vt 0.4319 0.6042
vt 0.4368 0.5864
vt 0.4695 0.5864
vt 0.4695 0.5941
vt 0.4368 0.5941
vt 0.4368 0.5642
vt 0.4695 0.5642
vt 0.4695 0.5700
vt 0.4368 0.5700
vt 0.3089 0.5927
vt 0.2762 0.5927
vt 0.2762 0.5850
vt 0.3089 0.5850
vt 0.2612 0.5761
vt 0.2686 0.5761
vt 0.2686 0.5819
vt 0.2612 0.5819
vn 0.0000 0.0000 -1.0000
vn 1.0000 0.0000 0.0000
vn 0.0000 -1.0000 0.0000
vn 0.0000 1.0000 0.0000
vn 0.0000 0.0000 1.0000
vn -1.0000 0.0000 0.0000
vn 0.9995 -0.0312 0.0000
vn 0.0000 -0.4124 -0.9110
vn 0.9917 -0.1286 0.0000
vn -0.9862 -0.1654 0.0000
vn 0.0000 -0.0199 -0.9998
vn 0.0000 -0.0199 0.9998
vn -0.9992 -0.0405 0.0000
vn 0.0000 -0.1160 0.9933
vn 0.0000 0.7637 0.6456
vn 0.0000 -1.0000 0.0051
vn -0.9995 -0.0312 0.0000
vn -0.9917 -0.1286 0.0000
vn 0.9862 -0.1654 0.0000
vn 0.9992 -0.0405 0.0000
vn 0.9984 -0.0573 0.0000
vn -0.9984 -0.0573 0.0000
vn 0.0000 -0.0576 0.9983
vn 0.0000 -0.0576 -0.9983
usemtl Material
s off
f 78/1/1 79/2/1 4/3/1 3/4/1 10/5/1
f 3/6/2 4/7/2 2/8/2 1/9/2
f 3/10/3 1/11/3 11/12/3 12/13/3
f 74/14/1 75/15/1 8/16/1 7/17/1
f 7/18/2 8/19/2 6/20/2 5/21/2
f 74/22/3 7/23/3 5/24/3 76/25/3
f 8/26/4 75/27/4 77/28/4 6/29/4
f 5/30/5 6/31/5 77/32/5 76/33/5
f 4/34/4 79/35/4 81/36/4 2/37/4
f 1/38/5 2/39/5 81/40/5 80/41/5 9/42/5
f 10/43/3 9/44/3 80/45/3 78/46/3
f 13/47/6 14/48/6 18/49/6 17/50/6
f 10/51/3 3/10/3 12/13/3 14/52/3
f 1/11/3 9/53/3 13/54/3 11/12/3
f 9/53/3 10/51/3 14/52/3 13/54/3
f 11/55/5 13/56/5 17/57/5 15/58/5
f 14/59/1 12/60/1 16/61/1 18/62/1
f 12/63/2 11/64/2 15/65/2 16/66/2
f 19/67/6 20/68/6 22/69/6 21/70/6
f 21/71/1 22/72/1 26/73/1 25/74/1
f 25/75/2 26/76/2 24/77/2 23/78/2
f 23/79/5 24/80/5 20/81/5 19/82/5
f 23/79/5 19/82/5 28/83/5 30/84/5
f 26/85/4 22/86/4 20/87/4 24/88/4
f 30/84/5 28/83/5 32/89/5 38/90/5 34/91/5
f 21/71/1 25/74/1 29/92/1 27/93/1
f 19/67/6 21/70/6 27/94/6 28/95/6
f 25/75/2 23/78/2 30/96/2 29/97/2
f 37/98/7 34/99/7 43/100/7 40/101/7
f 27/93/1 29/92/1 33/102/1 36/103/1 31/104/1
f 29/97/2 30/96/2 34/99/2 37/98/2 33/105/2
f 28/95/6 27/94/6 31/106/6 35/107/6 32/108/6
f 31/104/8 36/103/8 48/109/8 49/110/8
f 39/111/9 38/112/9 50/113/9 51/114/9
f 38/115/10 39/116/10 45/117/10 42/118/10
f 45/119/3 40/120/3 43/121/3 42/122/3
f 44/123/3 41/124/3 40/120/3 45/119/3
f 39/116/10 36/125/10 44/126/10 45/117/10
f 33/105/7 37/98/7 40/101/7 41/127/7
f 36/103/11 33/102/11 41/128/11 44/129/11
f 34/91/12 38/90/12 42/130/12 43/131/12
f 46/132/3 51/133/3 50/134/3 47/135/3
f 49/136/3 48/137/3 51/133/3 46/132/3
f 35/107/13 31/106/13 49/138/13 46/139/13
f 36/140/9 39/111/9 51/114/9 48/141/9
f 32/108/13 35/107/13 46/139/13 47/142/13
f 38/90/14 32/89/14 47/143/14 50/144/14
f 18/62/1 16/61/1 53/145/1 55/146/1
f 55/146/1 53/145/1 57/147/1 59/148/1
f 16/66/2 15/65/2 52/149/2 53/150/2
f 17/50/6 18/49/6 55/151/6 54/152/6
f 15/58/5 17/57/5 54/153/5 52/154/5
f 58/155/6 59/156/6 63/157/6 62/158/6
f 53/150/2 52/149/2 56/159/2 57/160/2
f 54/152/6 55/151/6 59/156/6 58/155/6
f 52/154/5 54/153/5 58/161/5 56/162/5
f 61/163/3 60/164/3 62/165/3 63/166/3
f 60/167/2 56/159/2 65/168/2
f 59/148/1 57/147/1 61/169/1 63/170/1
f 57/160/2 56/159/2 60/167/2 61/171/2
f 56/162/15 58/161/15 64/172/15 65/173/15
f 58/155/6 62/158/6 64/174/6
f 62/165/16 60/164/16 65/175/16 64/176/16
f 78/1/1 83/177/1 68/178/1 69/179/1 79/2/1
f 68/180/6 66/181/6 67/182/6 69/183/6
f 68/184/3 85/185/3 84/186/3 66/187/3
f 74/14/1 72/188/1 73/189/1 75/15/1
f 72/190/6 70/191/6 71/192/6 73/193/6
f 74/22/3 76/25/3 70/194/3 72/195/3
f 73/196/4 71/197/4 77/28/4 75/27/4
f 70/198/5 76/33/5 77/32/5 71/199/5
f 69/200/4 67/201/4 81/36/4 79/35/4
f 66/202/5 82/203/5 80/41/5 81/40/5 67/204/5
f 83/205/3 78/46/3 80/45/3 82/206/3
f 86/207/2 90/208/2 91/209/2 87/210/2
f 83/211/3 87/212/3 85/185/3 68/184/3
f 66/187/3 84/186/3 86/213/3 82/214/3
f 82/214/3 86/213/3 87/212/3 83/211/3
f 84/215/5 88/216/5 90/217/5 86/218/5
f 87/219/1 91/220/1 89/221/1 85/222/1
f 85/223/6 89/224/6 88/225/6 84/226/6
f 92/227/2 94/228/2 95/229/2 93/230/2
f 94/231/1 98/232/1 99/233/1 95/234/1
f 98/235/6 96/236/6 97/237/6 99/238/6
f 96/239/5 92/240/5 93/241/5 97/242/5
f 96/239/5 103/243/5 101/244/5 92/240/5
f 99/245/4 97/246/4 93/247/4 95/248/4
f 103/243/5 107/249/5 111/250/5 105/251/5 101/244/5
f 94/231/1 100/252/1 102/253/1 98/232/1
f 92/227/2 101/254/2 100/255/2 94/228/2
f 98/235/6 102/256/6 103/257/6 96/236/6
f 110/258/17 113/259/17 116/260/17 107/261/17
f 100/252/1 104/262/1 109/263/1 106/264/1 102/253/1
f 102/256/6 106/265/6 110/258/6 107/261/6 103/257/6
f 101/254/2 105/266/2 108/267/2 104/268/2 100/255/2
f 104/262/8 122/269/8 121/270/8 109/263/8
f 112/271/18 124/272/18 123/273/18 111/274/18
f 111/275/19 115/276/19 118/277/19 112/278/19
f 118/279/3 115/280/3 116/281/3 113/282/3
f 117/283/3 118/279/3 113/282/3 114/284/3
f 112/278/19 118/277/19 117/285/19 109/286/19
f 106/265/17 114/287/17 113/259/17 110/258/17
f 109/263/11 117/288/11 114/289/11 106/264/11
f 107/249/12 116/290/12 115/291/12 111/250/12
f 119/292/3 120/293/3 123/294/3 124/295/3
f 122/296/3 119/292/3 124/295/3 121/297/3
f 108/267/20 119/298/20 122/299/20 104/268/20
f 109/300/18 121/301/18 124/272/18 112/271/18
f 105/266/20 120/302/20 119/298/20 108/267/20
f 111/250/14 123/303/14 120/304/14 105/251/14
f 91/220/1 128/305/1 126/306/1 89/221/1
f 128/305/1 132/307/1 130/308/1 126/306/1
f 89/224/6 126/309/6 125/310/6 88/225/6
f 90/208/2 127/311/2 128/312/2 91/209/2
f 88/216/5 125/313/5 127/314/5 90/217/5
f 131/315/2 135/316/2 136/317/2 132/318/2
f 126/309/6 130/319/6 129/320/6 125/310/6
f 127/311/2 131/315/2 132/318/2 128/312/2
f 125/313/5 129/321/5 131/322/5 127/314/5
f 134/323/3 136/324/3 135/325/3 133/326/3
f 133/327/6 138/328/6 129/320/6
f 132/307/1 136/329/1 134/330/1 130/308/1
f 130/319/6 134/331/6 133/327/6 129/320/6
f 129/321/15 138/332/15 137/333/15 131/322/15
f 131/315/2 137/334/2 135/316/2
f 135/325/16 137/335/16 138/336/16 133/326/16
f 147/337/6 148/338/6 142/339/6 141/340/6
f 141/341/1 142/342/1 146/343/1 145/344/1
f 149/345/2 150/346/2 144/347/2 143/348/2
f 143/349/5 144/350/5 140/351/5 139/352/5
f 147/353/3 149/354/3 143/355/3 139/356/3
f 150/357/4 148/358/4 140/359/4 144/360/4
f 164/361/2 163/362/2 153/363/2 154/364/2
f 141/365/3 145/366/3 149/354/3 147/353/3
f 145/367/2 146/368/2 150/346/2 149/345/2
f 139/369/6 140/370/6 148/338/6 147/337/6
f 153/371/4 152/372/4 151/373/4 154/374/4
f 166/375/6 165/376/6 151/377/6 152/378/6
f 163/379/1 166/380/1 152/381/1 153/382/1
f 154/374/4 151/373/4 167/383/4 168/384/4
f 161/385/2 162/386/2 158/387/2 157/388/2
f 157/389/5 158/390/5 156/391/5 155/392/5
f 159/393/3 161/394/3 157/395/3 155/396/3
f 162/397/4 160/398/4 156/399/4 158/400/4
f 160/401/1 162/402/1 161/403/1 159/404/1
f 155/405/6 156/406/6 160/407/6 159/408/6
f 148/409/5 150/410/5 164/411/5 165/412/5
f 146/343/1 142/342/1 166/380/1 163/379/1
f 142/339/6 148/338/6 165/376/6 166/375/6
f 150/346/2 146/368/2 163/362/2 164/361/2
f 169/413/5 170/414/5 168/415/5 167/416/5
f 164/361/2 154/364/2 168/417/2 170/418/2
f 151/377/6 165/376/6 169/419/6 167/420/6
f 165/421/3 164/422/3 170/423/3 169/424/3
f 173/425/6 174/426/6 178/427/6 177/428/6
f 176/429/3 175/430/3 177/431/3 178/432/3
f 175/433/2 171/434/2 180/435/2
f 174/436/1 172/437/1 176/438/1 178/439/1
f 172/440/2 171/434/2 175/433/2 176/441/2
f 171/442/15 173/443/15 179/444/15 180/445/15
f 173/425/6 177/428/6 179/446/6
f 177/431/16 175/430/16 180/447/16 179/448/16
f 171/434/21 172/440/21 182/449/21 181/450/21
f 182/451/4 184/452/4 183/453/4 181/454/4
f 174/426/22 173/425/22 183/453/22 184/455/22
f 173/443/23 171/442/23 181/454/23 183/456/23
f 172/437/24 174/436/24 184/452/24 182/451/24
f 187/457/6 188/458/6 192/459/6 191/460/6
f 190/461/3 189/462/3 191/463/3 192/464/3
f 189/465/2 185/466/2 194/467/2
f 188/468/1 186/469/1 190/470/1 192/471/1
f 186/472/2 185/466/2 189/465/2 190/473/2
f 185/474/15 187/475/15 193/476/15 194/477/15
f 187/457/6 191/460/6 193/478/6
f 191/463/16 189/462/16 194/479/16 193/480/16
f 185/466/21 186/472/21 196/481/21 195/482/21
f 196/483/4 198/484/4 197/485/4 195/486/4
f 188/458/22 187/457/22 197/485/22 198/487/22
f 187/475/23 185/474/23 195/486/23 197/488/23
f 186/469/24 188/468/24 198/484/24 196/483/24
f 199/489/6 200/490/6 202/491/6 201/492/6
f 201/493/1 202/494/1 206/495/1 205/496/1
f 205/497/2 206/498/2 204/499/2 203/500/2
f 203/501/5 204/502/5 200/503/5 199/504/5
f 206/505/4 202/506/4 200/507/4 204/508/4
f 207/509/6 208/510/6 210/511/6 209/512/6
f 209/513/1 210/514/1 214/515/1 213/516/1
f 213/517/2 214/518/2 212/519/2 211/520/2
f 211/521/5 212/522/5 208/523/5 207/524/5
f 214/525/4 210/526/4 208/527/4 212/528/4
