# Blender v2.78 (sub 0) OBJ File: 'axe.blend'
# www.blender.org
mtllib axe.mtl
o Cylinder
v 0.000000 0.085428 -0.141002
v -0.000001 -1.561813 -0.141002
v -0.122111 0.085428 -0.070501
v -0.122112 -1.674082 -0.070501
v -0.122111 0.085428 0.070501
v -0.122112 -1.674082 0.070501
v 0.000000 0.085428 0.141002
v -0.000000 -1.561813 0.141002
v 0.122111 0.085427 0.070501
v 0.122111 -1.561813 0.070501
v 0.122111 0.085427 -0.070501
v 0.122111 -1.561813 -0.070501
v 0.000000 0.287422 -0.160785
v -0.139244 0.287422 -0.080392
v -0.139244 0.287422 0.080392
v 0.000000 0.287422 0.160785
v 0.139244 0.287422 0.080392
v 0.139244 0.287422 -0.080392
v -0.000000 0.640912 -0.160785
v -0.139244 0.640912 -0.080392
v -0.139244 0.640912 0.080392
v -0.000000 0.640912 0.160785
v 0.139244 0.640912 0.080392
v 0.139244 0.640912 -0.080392
v 0.000000 0.868155 -0.122556
v -0.106136 0.868155 -0.061278
v -0.106136 0.868155 0.061278
v 0.000000 0.868155 0.122556
v 0.106136 0.868155 0.061278
v 0.106136 0.868155 -0.061278
v -0.000001 -2.773778 -0.141002
v -0.122112 -2.661510 -0.070501
v -0.122112 -2.661510 0.070501
v -0.000001 -2.773778 0.141002
v 0.122110 -2.773778 0.070501
v 0.122110 -2.773778 -0.070501
v -0.000001 -3.076770 -0.161963
v -0.140266 -3.076770 -0.080982
v -0.140266 -3.076770 0.080982
v -0.000001 -3.076770 0.161963
v 0.140263 -3.076770 0.080982
v 0.140263 -3.076770 -0.080982
v -0.000002 -3.354512 -0.161963
v -0.140266 -3.354512 -0.080982
v -0.140266 -3.354512 0.080982
v -0.000002 -3.354512 0.161963
v 0.140263 -3.354512 0.080982
v 0.140263 -3.354512 -0.080982
v -0.637041 -1.891168 0.032183
v -0.637041 -1.891168 -0.032183
v -0.637041 -2.444423 0.032183
v -0.637041 -2.444423 -0.032183
v 0.435296 -1.302611 -0.100657
v 0.435296 -1.302611 0.100657
v 0.435295 -3.032981 -0.100657
v 0.435295 -3.032981 0.100657
v 1.000233 -1.662003 -0.058845
v 1.000233 -1.662003 0.058845
v 1.000233 -2.673590 -0.058845
v 1.000233 -2.673590 0.058845
vn -0.5000 0.0000 -0.8660
vn -1.0000 0.0000 0.0000
vn -0.5000 0.0000 0.8660
vn 0.5000 -0.0000 0.8660
vn 1.0000 -0.0000 0.0000
vn 0.5000 -0.0000 -0.8660
vn -0.4982 -0.0845 0.8629
vn 0.4982 -0.0845 -0.8629
vn 0.4982 -0.0845 0.8629
vn -0.9964 -0.0845 0.0000
vn 0.9964 -0.0845 0.0000
vn -0.4982 -0.0845 -0.8629
vn -0.9896 0.1442 0.0000
vn 0.0000 1.0000 0.0000
vn 0.9896 0.1442 0.0000
vn -0.4948 0.1442 0.8570
vn -0.4948 0.1442 -0.8570
vn 0.4948 0.1442 -0.8570
vn 0.4948 0.1442 0.8570
vn 0.9982 0.0598 0.0000
vn -0.4831 0.0505 0.8741
vn -0.4831 0.0505 -0.8741
vn 0.4991 0.0598 -0.8645
vn 0.4991 0.0598 0.8645
vn -0.9990 0.0437 0.0000
vn 0.0000 -1.0000 -0.0000
vn -0.3885 0.9215 0.0000
vn -0.0958 0.0000 0.9954
vn -0.0742 0.0000 -0.9972
vn -0.0742 0.0000 0.9972
vn -0.3885 -0.9215 0.0000
vn 0.0738 -0.0000 0.9973
vn -0.6376 0.7704 0.0000
vn -0.6376 -0.7704 0.0000
vn -0.0958 0.0000 -0.9954
vn 0.5368 0.8437 0.0000
vn 0.0738 -0.0000 -0.9973
vn 0.5368 -0.8437 0.0000
usemtl Material.001
s off
f 1//1 2//1 4//1 3//1
f 3//2 4//2 6//2 5//2
f 5//3 6//3 8//3 7//3
f 7//4 8//4 10//4 9//4
f 9//5 10//5 12//5 11//5
f 11//6 12//6 2//6 1//6
f 5//7 7//7 16//7 15//7
f 15//3 16//3 22//3 21//3
f 11//8 1//8 13//8 18//8
f 7//9 9//9 17//9 16//9
f 3//10 5//10 15//10 14//10
f 9//11 11//11 18//11 17//11
f 1//12 3//12 14//12 13//12
f 20//13 21//13 27//13 26//13
f 13//1 14//1 20//1 19//1
f 18//6 13//6 19//6 24//6
f 16//4 17//4 23//4 22//4
f 14//2 15//2 21//2 20//2
f 17//5 18//5 24//5 23//5
f 25//14 26//14 27//14 28//14 29//14 30//14
f 23//15 24//15 30//15 29//15
f 21//16 22//16 28//16 27//16
f 19//17 20//17 26//17 25//17
f 24//18 19//18 25//18 30//18
f 22//19 23//19 29//19 28//19
f 36//20 35//20 41//20 42//20
f 4//1 2//1 31//1 32//1
f 8//3 6//3 33//3 34//3
f 2//6 12//6 36//6 31//6
f 10//4 8//4 34//4 35//4
f 37//6 42//6 48//6 43//6
f 34//21 33//21 39//21 40//21
f 32//22 31//22 37//22 38//22
f 31//23 36//23 42//23 37//23
f 35//24 34//24 40//24 41//24
f 33//25 32//25 38//25 39//25
f 44//26 43//26 48//26 47//26 46//26 45//26
f 41//4 40//4 46//4 47//4
f 39//2 38//2 44//2 45//2
f 42//5 41//5 47//5 48//5
f 40//3 39//3 45//3 46//3
f 38//1 37//1 43//1 44//1
usemtl Material.002
f 6//27 4//27 50//27 49//27
f 10//28 35//28 56//28 54//28
f 49//2 50//2 52//2 51//2
f 4//29 32//29 52//29 50//29
f 33//30 6//30 49//30 51//30
f 32//31 33//31 51//31 52//31
f 54//32 56//32 60//32 58//32
f 12//33 10//33 54//33 53//33
f 35//34 36//34 55//34 56//34
f 36//35 12//35 53//35 55//35
f 57//5 58//5 60//5 59//5
f 53//36 54//36 58//36 57//36
f 55//37 53//37 57//37 59//37
f 56//38 55//38 59//38 60//38
