# Blender v2.78 (sub 0) OBJ File: 'fire.blend'
# www.blender.org
mtllib fire.mtl
o Icosphere.002
v -0.969123 0.064579 -0.554884
v -1.118978 0.333104 -0.881044
v -0.691051 0.091519 -0.918095
v -0.566792 0.023493 -0.481673
v -0.947207 -0.031596 -0.110654
v -1.291871 0.268203 -0.360295
v -0.654277 0.513713 -0.968246
v -0.355296 0.245088 -0.627371
v -0.460587 0.089141 -0.149394
v -0.996548 0.438636 0.126502
v -1.097115 0.534503 -0.655075
v -0.582217 0.540943 -0.443819
vn -0.4735 -0.7743 -0.4199
vn -0.6315 -0.7154 -0.2988
vn -0.0769 -0.9882 -0.1322
vn -0.0618 -0.9761 -0.2083
vn -0.5884 -0.7958 -0.1433
vn -0.8922 0.3766 -0.2493
vn -0.1441 -0.1043 -0.9840
vn 0.5922 -0.7533 -0.2860
vn 0.2476 -0.9625 0.1110
vn -0.7333 -0.3659 0.5730
vn -0.3860 0.7069 -0.5927
vn 0.6847 -0.1445 -0.7144
vn 0.6941 -0.7154 -0.0805
vn 0.1768 -0.4284 0.8861
vn -0.6924 0.7000 0.1750
vn 0.0093 0.9985 -0.0531
vn 0.7435 0.6547 -0.1362
vn 0.8368 0.4387 0.3275
vn 0.6354 0.5343 0.5575
vn -0.0656 0.9894 0.1298
usemtl dark
s off
f 1//1 2//1 3//1
f 2//2 1//2 6//2
f 1//3 3//3 4//3
f 1//4 4//4 5//4
f 1//5 5//5 6//5
f 2//6 6//6 11//6
f 3//7 2//7 7//7
f 4//8 3//8 8//8
f 5//9 4//9 9//9
f 6//10 5//10 10//10
f 2//11 11//11 7//11
f 3//12 7//12 8//12
f 4//13 8//13 9//13
f 5//14 9//14 10//14
f 6//15 10//15 11//15
f 7//16 11//16 12//16
f 8//17 7//17 12//17
f 9//18 8//18 12//18
f 10//19 9//19 12//19
f 11//20 10//20 12//20
o Icosphere.001
v 0.751962 0.481198 -0.354864
v 0.738455 0.212673 0.003822
v 1.147942 0.454258 -0.125851
v 1.095574 0.522284 -0.576586
v 0.602064 0.577372 -0.773613
v 0.379296 0.277574 -0.411000
v 1.201120 0.032064 -0.093609
v 1.346745 0.300689 -0.523002
v 1.066416 0.456636 -0.924205
v 0.465654 0.107141 -0.973787
v 0.672104 0.011273 -0.213291
v 1.066827 0.004834 -0.605646
vn -0.2765 0.7743 0.5692
vn -0.4689 0.7154 0.5179
vn -0.0204 0.9882 0.1515
vn 0.0227 0.9761 0.2161
vn -0.4887 0.7958 0.3577
vn -0.7287 -0.3766 0.5720
vn 0.2438 0.1043 0.9642
vn 0.6566 0.7533 0.0374
vn 0.1862 0.9625 -0.1974
vn -0.8969 0.3659 -0.2484
vn -0.1295 -0.7069 0.6953
vn 0.9061 0.1445 0.3977
vn 0.6720 0.7154 -0.1915
vn -0.1761 0.4284 -0.8863
vn -0.7066 -0.7000 0.1036
vn 0.0289 -0.9985 0.0455
vn 0.7389 -0.6547 -0.1590
vn 0.6476 -0.4387 -0.6230
vn 0.3734 -0.5343 -0.7583
vn -0.1103 -0.9894 -0.0948
usemtl dark
s off
f 13//21 14//21 15//21
f 14//22 13//22 18//22
f 13//23 15//23 16//23
f 13//24 16//24 17//24
f 13//25 17//25 18//25
f 14//26 18//26 23//26
f 15//27 14//27 19//27
f 16//28 15//28 20//28
f 17//29 16//29 21//29
f 18//30 17//30 22//30
f 14//31 23//31 19//31
f 15//32 19//32 20//32
f 16//33 20//33 21//33
f 17//34 21//34 22//34
f 18//35 22//35 23//35
f 19//36 23//36 24//36
f 20//37 19//37 24//37
f 21//38 20//38 24//38
f 22//39 21//39 24//39
f 23//40 22//40 24//40
o Cylinder.002
v -0.341557 2.349266 -0.126905
v 1.054422 0.123459 0.391767
v -0.435403 2.297996 -0.103367
v 0.887279 0.032145 0.433688
v -0.397267 2.297996 -0.206009
v 0.955201 0.032145 0.250879
v 0.045406 1.746012 0.016870
v -0.079783 1.677619 0.048269
v -0.028910 1.677619 -0.088653
v 0.127544 1.609675 0.047388
v 0.002355 1.541282 0.078787
v 0.053228 1.541282 -0.058135
v -0.208341 2.296553 0.169914
v -0.261456 2.320665 0.112912
v -0.209321 2.362172 0.081890
v -0.156207 2.338060 0.138892
vn 0.0886 0.2770 0.9568
vn -0.7926 -0.5340 -0.2945
vn 0.5068 -0.8412 0.1883
vn 0.6919 0.2770 -0.6668
vn -0.5068 0.8412 -0.1883
vn 0.6885 0.2825 -0.6680
vn -0.7958 -0.5285 -0.2957
vn 0.0853 0.2825 0.9555
vn 0.6959 0.2703 -0.6653
vn -0.7886 -0.5407 -0.2930
vn -0.3238 -0.0148 -0.9460
vn -0.2699 0.7705 0.5774
vn -0.7304 -0.2746 0.6253
vn 0.7725 0.3695 -0.5164
vn 0.3345 -0.0045 0.9424
usemtl None
s off
f 34//41 35//41 28//41 26//41
f 35//42 36//42 30//42 28//42
f 28//43 30//43 26//43
f 36//44 34//44 26//44 30//44
f 25//45 29//45 27//45
f 29//46 25//46 31//46 33//46
f 27//47 29//47 33//47 32//47
f 25//48 27//48 32//48 31//48
f 33//49 31//49 34//49 36//49
f 32//50 33//50 36//50 35//50
f 32//51 38//51 39//51 31//51
f 39//52 38//52 37//52 40//52
f 35//53 37//53 38//53 32//53
f 31//54 39//54 40//54 34//54
f 34//55 40//55 37//55 35//55
o Cylinder.001
v 0.283644 2.349265 -0.228718
v -0.875639 0.123459 0.706076
v 0.311377 2.297996 -0.321411
v -0.826246 0.032145 0.540986
v 0.380110 2.297996 -0.236173
v -0.703831 0.032145 0.692799
v -0.037707 1.746012 0.030405
v -0.000712 1.677619 -0.093245
v 0.090976 1.677619 0.020461
v -0.105918 1.609675 0.085408
v -0.068923 1.541282 -0.038243
v 0.022765 1.541282 0.075463
v -0.039564 2.296552 -0.265916
v 0.036577 2.320665 -0.282437
v 0.036595 2.362172 -0.221770
v -0.039546 2.338060 -0.205250
vn -0.8677 0.2770 -0.4128
vn 0.6582 -0.5340 -0.5307
vn -0.4209 -0.8412 0.3394
vn 0.2195 0.2770 0.9355
vn 0.4209 0.8412 -0.3394
vn 0.2222 0.2825 0.9332
vn 0.6609 -0.5285 -0.5329
vn -0.8649 0.2825 -0.4150
vn 0.2162 0.2703 0.9382
vn 0.6549 -0.5407 -0.5281
vn 0.9786 -0.0148 0.2052
vn -0.3584 0.7705 -0.5271
vn -0.1642 -0.2746 -0.9474
vn 0.0491 0.3695 0.9279
vn -0.9810 -0.0045 -0.1941
usemtl None
s off
f 50//56 51//56 44//56 42//56
f 51//57 52//57 46//57 44//57
f 44//58 46//58 42//58
f 52//59 50//59 42//59 46//59
f 41//60 45//60 43//60
f 45//61 41//61 47//61 49//61
f 43//62 45//62 49//62 48//62
f 41//63 43//63 48//63 47//63
f 49//64 47//64 50//64 52//64
f 48//65 49//65 52//65 51//65
f 48//66 54//66 55//66 47//66
f 55//67 54//67 53//67 56//67
f 51//68 53//68 54//68 48//68
f 47//69 55//69 56//69 50//69
f 50//70 56//70 53//70 51//70
o Cylinder
v -0.000000 2.349265 0.364371
v 0.000000 0.123459 -1.124850
v 0.054749 2.297996 0.444144
v 0.097510 0.032145 -0.982772
v -0.054749 2.297996 0.444144
v -0.097510 0.032145 -0.982772
v 0.000000 1.746012 -0.048439
v 0.073034 1.677619 0.057977
v -0.073034 1.677619 0.057977
v 0.000000 1.609675 -0.136063
v 0.073034 1.541282 -0.029647
v -0.073034 1.541282 -0.029647
v 0.231837 2.296552 0.136119
v 0.196903 2.320665 0.205761
v 0.149666 2.362172 0.167694
v 0.184600 2.338060 0.098052
vn 0.8660 0.2770 -0.4163
vn 0.0000 -0.5340 0.8455
vn 0.0000 -0.8412 -0.5407
vn -0.8660 0.2770 -0.4163
vn 0.0000 0.8412 0.5407
vn -0.8659 0.2825 -0.4128
vn 0.0000 -0.5285 0.8490
vn 0.8659 0.2825 -0.4128
vn -0.8660 0.2703 -0.4206
vn 0.0000 -0.5407 0.8412
vn -0.7740 -0.0148 0.6330
vn 0.6353 0.7705 0.0519
vn 0.8406 -0.2746 0.4669
vn -0.7531 0.3695 -0.5443
vn 0.7669 -0.0045 -0.6418
usemtl None
s off
f 66//71 67//71 60//71 58//71
f 67//72 68//72 62//72 60//72
f 60//73 62//73 58//73
f 68//74 66//74 58//74 62//74
f 57//75 61//75 59//75
f 61//76 57//76 63//76 65//76
f 59//77 61//77 65//77 64//77
f 57//78 59//78 64//78 63//78
f 65//79 63//79 66//79 68//79
f 64//80 65//80 68//80 67//80
f 64//81 70//81 71//81 63//81
f 71//82 70//82 69//82 72//82
f 67//83 69//83 70//83 64//83
f 63//84 71//84 72//84 66//84
f 66//85 72//85 69//85 67//85
o Icosphere
v 0.208437 0.481198 1.137517
v 0.522795 0.212673 1.310771
v 0.590970 0.454258 0.886688
v 0.164777 0.522284 0.730917
v -0.233009 0.577372 1.083248
v -0.009181 0.277573 1.445208
v 0.643671 0.032064 0.853671
v 0.325519 0.300689 0.530616
v -0.158867 0.456635 0.600751
v -0.473133 0.107141 1.115153
v 0.299023 0.011273 1.272478
v 0.125899 0.004834 0.743539
vn 0.3842 0.7743 0.5028
vn 0.2520 0.7154 0.6517
vn 0.1262 0.9882 0.0863
vn 0.2032 0.9761 0.0768
vn 0.0999 0.7958 0.5973
vn 0.1835 -0.3766 0.9080
vn 0.9709 0.1043 0.2155
vn 0.3285 0.7533 -0.5698
vn -0.0926 0.9625 -0.2551
vn -0.6250 0.3659 0.6896
vn 0.5630 -0.7069 0.4282
vn 0.7624 0.1445 -0.6307
vn 0.1309 0.7154 -0.6864
vn -0.8709 0.4284 -0.2410
vn -0.2250 -0.7000 0.6778
vn 0.0537 -0.9985 -0.0054
vn 0.1900 -0.6547 -0.7316
vn -0.2655 -0.4387 -0.8585
vn -0.5096 -0.5343 -0.6744
vn -0.1342 -0.9894 0.0560
usemtl dark
s off
f 73//86 74//86 75//86
f 74//87 73//87 78//87
f 73//88 75//88 76//88
f 73//89 76//89 77//89
f 73//90 77//90 78//90
f 74//91 78//91 83//91
f 75//92 74//92 79//92
f 76//93 75//93 80//93
f 77//94 76//94 81//94
f 78//95 77//95 82//95
f 74//96 83//96 79//96
f 75//97 79//97 80//97
f 76//98 80//98 81//98
f 77//99 81//99 82//99
f 78//100 82//100 83//100
f 79//101 83//101 84//101
f 80//102 79//102 84//102
f 81//103 80//103 84//103
f 82//104 81//104 84//104
f 83//105 82//105 84//105
