# Blender v2.78 (sub 0) OBJ File: 'RootFibre.blend'
# www.blender.org
mtllib RootFiber.mtl
o Cylinder
v 0.166584 1.134641 0.947578
v 0.166584 2.810395 -0.017246
v 0.190092 1.140484 0.959828
v 0.319532 2.848408 0.062457
v 0.190092 1.152169 0.984329
v 0.319532 2.924436 0.221865
v 0.166584 1.158012 0.996580
v 0.166584 2.962449 0.301568
v 0.143076 1.152169 0.984329
v 0.013636 2.924436 0.221865
v 0.143076 1.140484 0.959828
v 0.013636 2.848408 0.062457
v 0.060717 2.408760 0.348694
v 0.178749 2.438096 0.410202
v 0.178749 2.496767 0.533218
v 0.060717 2.526102 0.594727
v -0.057314 2.496767 0.533218
v -0.057314 2.438096 0.410202
v 0.241443 1.770084 0.503275
v 0.241443 1.807295 0.581295
v 0.166584 1.825901 0.620305
v 0.091725 1.807295 0.581295
v 0.091725 1.770084 0.503275
v 0.166584 1.751479 0.464264
v 0.000000 3.331142 -0.416989
v -0.000000 0.107358 -0.070934
v 0.361123 3.331142 -0.208495
v 0.061431 0.107358 -0.035467
v 0.361123 3.331142 0.208495
v 0.061431 0.107358 0.035467
v -0.000000 3.331142 0.416989
v -0.000000 0.107358 0.070934
v -0.361123 3.331142 0.208495
v -0.061431 0.107358 0.035467
v -0.361123 3.331142 -0.208495
v -0.061431 0.107358 -0.035467
v 0.215641 2.425068 -0.189568
v 0.492533 2.425068 -0.029704
v 0.492533 2.425068 0.290023
v 0.215641 2.425068 0.449887
v -0.061251 2.425068 0.290023
v -0.061251 2.425068 -0.029704
v -0.000000 1.163663 -0.346290
v 0.159628 1.163663 -0.254129
v 0.159628 1.163663 -0.069806
v -0.000000 1.163663 0.022355
v -0.159628 1.163663 -0.069806
v -0.159628 1.163663 -0.254129
v 0.292768 0.688340 -0.746334
v 0.064075 1.720457 -0.254420
v 0.308853 0.689969 -0.743774
v 0.168725 1.731059 -0.237769
v 0.315681 0.683637 -0.730313
v 0.213150 1.689862 -0.150188
v 0.306425 0.675675 -0.719411
v 0.152925 1.638062 -0.079258
v 0.290340 0.674046 -0.721970
v 0.048275 1.627459 -0.095909
v 0.283512 0.680378 -0.735431
v 0.003850 1.668657 -0.183490
v 0.098156 1.393134 -0.310268
v 0.178915 1.401316 -0.297418
v 0.213198 1.369523 -0.229831
v 0.166722 1.329549 -0.175094
v 0.085963 1.321367 -0.187943
v 0.051680 1.353159 -0.255530
v 0.225239 1.128972 -0.598280
v 0.246982 1.108808 -0.555415
v 0.217506 1.083455 -0.520699
v 0.166286 1.078266 -0.528849
v 0.144543 1.098430 -0.571714
v 0.174019 1.123783 -0.606430
vn 0.4699 -0.6590 -0.5873
vn 0.9653 -0.2359 0.1125
vn 0.4998 0.3962 0.7702
vn -0.4873 0.5654 0.6655
vn 0.0000 0.9026 -0.4305
vn -0.9908 0.1220 -0.0582
vn -0.4937 -0.5110 -0.7037
vn -0.0000 -0.9026 0.4305
vn -0.4939 -0.2271 -0.8394
vn -0.9742 -0.2038 0.0972
vn -0.4547 -0.0362 0.8899
vn 0.4799 0.1044 0.8711
vn 0.9953 0.0876 -0.0418
vn 0.4758 -0.0774 -0.8761
vn 0.4909 -0.5373 -0.6858
vn 0.9978 -0.0605 0.0288
vn 0.4991 0.4253 0.7550
vn -0.4991 0.4253 0.7550
vn -0.9978 -0.0605 0.0288
vn -0.4909 -0.5373 -0.6858
vn 0.4877 -0.2202 -0.8448
vn 0.9957 -0.0926 0.0000
vn 0.4996 0.0398 0.8653
vn -0.4996 0.0398 0.8653
vn 0.0000 -1.0000 0.0000
vn -0.9957 -0.0926 0.0000
vn -0.4877 -0.2202 -0.8448
vn 0.0000 1.0000 0.0000
vn -0.4739 -0.3188 -0.8208
vn -0.9494 -0.3142 0.0000
vn -0.4981 -0.0872 0.8627
vn 0.4944 0.1488 0.8564
vn 0.9896 0.1435 0.0000
vn 0.4976 -0.0979 -0.8619
vn -0.4909 0.1896 -0.8503
vn -0.9970 0.0778 0.0000
vn -0.4895 -0.2037 0.8479
vn 0.4675 -0.3544 0.8098
vn 0.9669 -0.2552 0.0000
vn 0.4999 0.0221 -0.8658
vn 0.1367 0.1804 -0.9740
vn 0.9057 0.1024 -0.4113
vn 0.8036 -0.1435 0.5776
vn -0.1203 -0.2994 0.9465
vn -0.1644 0.8578 0.4869
vn -0.9079 -0.2192 0.3574
vn -0.7720 0.0280 -0.6350
vn 0.1644 -0.8578 -0.4869
vn -0.8240 0.2979 -0.4820
vn -0.8336 -0.5233 0.1767
vn -0.0095 -0.8152 0.5791
vn 0.8218 -0.4001 0.4056
vn 0.8737 0.4200 -0.2456
vn 0.0310 0.7434 -0.6681
vn 0.1153 0.3322 -0.9361
vn 0.9028 0.2801 -0.3262
vn 0.7971 -0.1150 0.5928
vn -0.0952 -0.4528 0.8865
vn -0.8808 -0.3950 0.2610
vn -0.7623 0.0001 -0.6472
usemtl None
s off
f 13//1 2//1 4//1 14//1
f 14//2 4//2 6//2 15//2
f 15//3 6//3 8//3 16//3
f 16//4 8//4 10//4 17//4
f 4//5 2//5 12//5 10//5 8//5 6//5
f 17//6 10//6 12//6 18//6
f 18//7 12//7 2//7 13//7
f 1//8 3//8 5//8 7//8 9//8 11//8
f 23//9 18//9 13//9 24//9
f 22//10 17//10 18//10 23//10
f 21//11 16//11 17//11 22//11
f 20//12 15//12 16//12 21//12
f 19//13 14//13 15//13 20//13
f 24//14 13//14 14//14 19//14
f 1//15 24//15 19//15 3//15
f 3//16 19//16 20//16 5//16
f 5//17 20//17 21//17 7//17
f 7//18 21//18 22//18 9//18
f 9//19 22//19 23//19 11//19
f 11//20 23//20 24//20 1//20
f 43//21 44//21 28//21 26//21
f 44//22 45//22 30//22 28//22
f 45//23 46//23 32//23 30//23
f 46//24 47//24 34//24 32//24
f 28//25 30//25 32//25 34//25 36//25 26//25
f 47//26 48//26 36//26 34//26
f 48//27 43//27 26//27 36//27
f 25//28 35//28 33//28 31//28 29//28 27//28
f 35//29 25//29 37//29 42//29
f 33//30 35//30 42//30 41//30
f 31//31 33//31 41//31 40//31
f 29//32 31//32 40//32 39//32
f 27//33 29//33 39//33 38//33
f 25//34 27//34 38//34 37//34
f 42//35 37//35 43//35 48//35
f 41//36 42//36 48//36 47//36
f 40//37 41//37 47//37 46//37
f 39//38 40//38 46//38 45//38
f 38//39 39//39 45//39 44//39
f 37//40 38//40 44//40 43//40
f 61//41 50//41 52//41 62//41
f 62//42 52//42 54//42 63//42
f 63//43 54//43 56//43 64//43
f 64//44 56//44 58//44 65//44
f 52//45 50//45 60//45 58//45 56//45 54//45
f 65//46 58//46 60//46 66//46
f 66//47 60//47 50//47 61//47
f 49//48 51//48 53//48 55//48 57//48 59//48
f 71//49 66//49 61//49 72//49
f 70//50 65//50 66//50 71//50
f 69//51 64//51 65//51 70//51
f 68//52 63//52 64//52 69//52
f 67//53 62//53 63//53 68//53
f 72//54 61//54 62//54 67//54
f 49//55 72//55 67//55 51//55
f 51//56 67//56 68//56 53//56
f 53//57 68//57 69//57 55//57
f 55//58 69//58 70//58 57//58
f 57//59 70//59 71//59 59//59
f 59//60 71//60 72//60 49//60
